<mxfile host="app.diagrams.net" modified="2020-11-22T03:11:09.655Z" agent="5.0 (Windows NT 10.0; Win64; x64) AppleWebKit/537.36 (KHTML, like Gecko) Chrome/84.0.4147.105 Safari/537.36" etag="8RKF_KCAcXNWeO8FGKrk" version="13.10.0" type="github">
  <diagram id="dVFKXML9JE0vDIz6srVf" name="Page-1">
    <mxGraphModel dx="782" dy="483" grid="1" gridSize="10" guides="1" tooltips="1" connect="1" arrows="1" fold="1" page="1" pageScale="1" pageWidth="827" pageHeight="1169" math="0" shadow="0">
      <root>
        <mxCell id="0" />
        <mxCell id="1" parent="0" />
        <mxCell id="p9msMCTc1HthKKinYWvc-13" style="edgeStyle=orthogonalEdgeStyle;rounded=0;orthogonalLoop=1;jettySize=auto;html=1;exitX=0.5;exitY=1;exitDx=0;exitDy=0;entryX=0.5;entryY=0;entryDx=0;entryDy=0;" edge="1" parent="1" source="p9msMCTc1HthKKinYWvc-9" target="p9msMCTc1HthKKinYWvc-10">
          <mxGeometry relative="1" as="geometry" />
        </mxCell>
        <mxCell id="p9msMCTc1HthKKinYWvc-9" value="&lt;span&gt;热榜（数码、科学、体育等）&lt;/span&gt;" style="rounded=1;whiteSpace=wrap;html=1;" vertex="1" parent="1">
          <mxGeometry x="340" y="20" width="120" height="60" as="geometry" />
        </mxCell>
        <mxCell id="p9msMCTc1HthKKinYWvc-14" style="edgeStyle=orthogonalEdgeStyle;rounded=0;orthogonalLoop=1;jettySize=auto;html=1;exitX=0.5;exitY=1;exitDx=0;exitDy=0;entryX=0.5;entryY=0;entryDx=0;entryDy=0;" edge="1" parent="1" source="p9msMCTc1HthKKinYWvc-10" target="p9msMCTc1HthKKinYWvc-11">
          <mxGeometry relative="1" as="geometry" />
        </mxCell>
        <mxCell id="p9msMCTc1HthKKinYWvc-10" value="热榜下问题的ID" style="rounded=1;whiteSpace=wrap;html=1;" vertex="1" parent="1">
          <mxGeometry x="340" y="120" width="120" height="60" as="geometry" />
        </mxCell>
        <mxCell id="p9msMCTc1HthKKinYWvc-15" style="edgeStyle=orthogonalEdgeStyle;rounded=0;orthogonalLoop=1;jettySize=auto;html=1;exitX=0.5;exitY=1;exitDx=0;exitDy=0;entryX=0.5;entryY=0;entryDx=0;entryDy=0;" edge="1" parent="1" source="p9msMCTc1HthKKinYWvc-11" target="p9msMCTc1HthKKinYWvc-12">
          <mxGeometry relative="1" as="geometry" />
        </mxCell>
        <mxCell id="p9msMCTc1HthKKinYWvc-11" value="回答热榜问题的用户ID" style="rounded=1;whiteSpace=wrap;html=1;" vertex="1" parent="1">
          <mxGeometry x="340" y="220" width="120" height="60" as="geometry" />
        </mxCell>
        <mxCell id="p9msMCTc1HthKKinYWvc-12" value="用户主页动态数据" style="rounded=1;whiteSpace=wrap;html=1;" vertex="1" parent="1">
          <mxGeometry x="340" y="320" width="120" height="60" as="geometry" />
        </mxCell>
      </root>
    </mxGraphModel>
  </diagram>
</mxfile>
